<svg width="16" height="16" viewBox="0 0 16 16" fill="none" xmlns="http://www.w3.org/2000/svg">
<path d="M8.00398 0.963893H8.00786C8.06297 0.964691 8.11731 0.972669 8.16931 0.987029L14.6033 3.19053L13.64 3.51844C13.602 3.4961 13.5616 3.47775 13.5197 3.46339L7.06088 1.25028L7.82001 0.990209C7.87512 0.973455 7.93256 0.96468 7.99 0.963881L8.00398 0.963893ZM12.1761 4.01702L10.8262 4.47655L4.24559 2.21402L5.58068 1.75688L12.1761 4.01702ZM9.34447 4.98077V4.98157L8.00163 5.43791L1.39614 3.18968L2.76769 2.71978L9.34447 4.98077ZM13.0641 6.13679V6.13759L13.0532 6.14397C12.9322 6.08812 12.8025 6.061 12.6737 6.061C12.4098 6.061 12.1474 6.17508 11.9619 6.39766L11.7578 6.64338L11.7438 6.63859L11.7446 5.48419C11.7446 5.38127 11.7283 5.28155 11.6988 5.18741L13.0618 4.71989L13.0641 6.13679ZM3.37704 6.45591C3.33046 6.45591 3.28389 6.46309 3.23965 6.47665H3.23887C3.1302 6.51096 3.03317 6.58675 2.97184 6.69604C2.96719 6.70482 2.20262 8.07225 2.20262 8.07225C2.07377 8.30201 2.15139 8.5956 2.37416 8.72723L3.71313 9.51865C3.78686 9.56173 3.86682 9.58247 3.94522 9.58247C3.99257 9.58247 4.03836 9.57529 4.08261 9.56093C4.19205 9.52663 4.28909 9.45163 4.35041 9.34154C4.47926 9.11178 4.40241 8.81819 4.17887 8.68656L3.83655 8.48392C3.92969 8.46796 4.02362 8.45998 4.11754 8.45998C4.7649 8.45998 5.38664 8.83494 5.68393 9.47638C6.09532 10.3651 5.72817 11.4286 4.86348 11.8523C4.78431 11.8906 4.70436 11.9225 4.62364 11.9472C4.45675 11.9999 4.28599 12.0254 4.11677 12.0254C3.68209 12.0254 3.25984 11.857 2.93926 11.5523L2.93771 11.5507C2.84223 11.4597 2.71803 11.3991 2.58687 11.3991C2.54417 11.3991 2.50148 11.4055 2.45801 11.4191C2.2104 11.4972 2.06992 11.7621 2.14598 12.0166L2.14676 12.0214C2.17315 12.11 2.22127 12.1849 2.28415 12.2416V12.2424C2.7817 12.7235 3.44147 12.9899 4.11988 12.9899C4.37914 12.9899 4.64072 12.9508 4.89765 12.8703C5.02184 12.8312 5.14526 12.7817 5.26636 12.7227C6.5991 12.0709 7.16574 10.4322 6.5308 9.06234C6.07361 8.07306 5.115 7.49546 4.11609 7.49546C3.93445 7.49546 3.75205 7.51381 3.57041 7.5537L3.78154 7.17474C3.90961 6.94498 3.83277 6.65139 3.60922 6.51976C3.53626 6.47588 3.45622 6.45591 3.37704 6.45591ZM15.0629 12.1713V12.1721C15.0629 12.4585 14.8836 12.7138 14.6182 12.8047L8.46989 14.9124C8.5545 14.7936 8.47688 6.2906 8.47688 6.2906L10.8085 5.4912V7.32375C10.8085 7.62373 10.9863 7.89018 11.2595 7.99471L11.2642 7.9963C11.3426 8.02582 11.4248 8.04018 11.5056 8.04018C11.705 8.04018 11.8999 7.95163 12.0349 7.78967L12.673 7.02219L12.8562 7.18015C12.9842 7.29025 13.141 7.34769 13.3017 7.34769H13.3033C13.4034 7.34689 13.5043 7.32535 13.599 7.27988C13.8443 7.161 14.0011 6.9081 14.0003 6.62967L13.9964 4.39982L15.0621 4.03442L15.0629 12.1713ZM7.53224 6.29232V14.9133L1.38239 12.8056C1.11694 12.7139 0.937623 12.4586 0.937623 12.1714L0.936847 4.03459L7.53224 6.29232ZM7.98943 0H7.98322C7.81556 0.00159549 7.65178 0.0311134 7.4981 0.0837696L1.08436 2.28176C0.780096 2.38627 0.521615 2.57933 0.333776 2.82826L0.321356 2.84341C0.13817 3.09072 0.0240674 3.3923 0.00232862 3.7146C-4.95967e-08 3.7521 0 3.79039 0 3.82869L0.000776208 12.1713C0.000776208 12.8734 0.437777 13.4965 1.08591 13.7191L7.49964 15.9162C7.65256 15.9689 7.81635 15.9976 7.98322 16H8.00107C8.16097 15.9992 8.31698 15.9753 8.46601 15.9282L14.9155 13.7192C15.5636 13.4966 15.9999 12.8735 15.9999 12.1715C16.0007 3.75304 15.9975 3.71566 15.9975 3.71566V3.71487C15.975 3.38537 15.8563 3.08061 15.6661 2.83012L15.6653 2.82852C15.4775 2.5796 15.2198 2.38653 14.9147 2.28123L8.47756 0.0769053C8.32542 0.0274413 8.16552 0.00111527 8.00175 0.000316704L7.98943 0Z" fill="black"/>
</svg>
