<svg width="18" height="16" viewBox="0 0 18 16" fill="none" xmlns="http://www.w3.org/2000/svg">
<path d="M17.0758 6.99019V2.5141C17.0758 1.12719 15.9379 0 14.5377 0H3.46137C2.06125 0 0.923327 1.12719 0.923327 2.5141V6.99019C0.364324 7.45222 0 8.13796 0 8.9137V12.5713C0 13.4533 0.724284 14.1716 1.6156 14.1716H1.84665V15.3143C1.84665 15.6931 2.15644 16 2.53893 16C2.92142 16 3.2312 15.6931 3.2312 15.3143V14.1716H14.7688V15.3143C14.7688 15.6931 15.0786 16 15.4611 16C15.8436 16 16.1533 15.6931 16.1533 15.3143V14.1716H16.3844C17.2748 14.1716 18 13.4542 18 12.5713V8.9137C18 8.13708 17.6366 7.45134 17.0767 6.99019H17.0758ZM2.30787 2.5141C2.30787 1.88407 2.82534 1.37149 3.46137 1.37149H14.5377C15.1738 1.37149 15.6912 1.88407 15.6912 2.5141V6.39968H14.3067V5.25707C14.3067 4.37504 13.5824 3.65671 12.6911 3.65671H10.8453C9.9549 3.65671 9.22972 4.37416 9.22972 5.25707V6.39968H8.7685V5.25707C8.7685 4.37504 8.04422 3.65671 7.1529 3.65671H5.30714C4.41671 3.65671 3.69154 4.37416 3.69154 5.25707V6.39968H2.30699V2.5141H2.30787ZM12.9221 6.39968H10.6143V5.25707C10.6143 5.13107 10.7172 5.0282 10.8453 5.0282H12.6911C12.8183 5.0282 12.9221 5.1302 12.9221 5.25707V6.39968ZM7.38396 6.39968H5.07608V5.25707C5.07608 5.13107 5.17906 5.0282 5.30714 5.0282H7.1529C7.28011 5.0282 7.38396 5.1302 7.38396 5.25707V6.39968ZM16.6146 12.5714C16.6146 12.6974 16.5116 12.8002 16.3835 12.8002H1.6156C1.48839 12.8002 1.38455 12.6982 1.38455 12.5714V11.8856H16.6146V12.5714ZM16.6146 10.5141H1.38455V8.91378C1.38455 8.28376 1.90201 7.77117 2.53804 7.77117H15.4602C16.0962 7.77117 16.6137 8.28376 16.6137 8.91378V10.5141H16.6146Z" fill="black"/>
</svg>
