<svg width="14" height="14" viewBox="0 0 14 14" fill="none" xmlns="http://www.w3.org/2000/svg">
<path d="M2.0494 2.0494C-0.683133 4.78193 -0.683133 9.21807 2.0494 11.9506C4.78193 14.6831 9.21807 14.6831 11.9506 11.9506C14.6831 9.21807 14.6831 4.78193 11.9506 2.0494C9.21807 -0.683133 4.76506 -0.683133 2.0494 2.0494ZM11.1241 11.1241C8.84699 13.4012 5.13614 13.4012 2.85904 11.1241C0.581928 8.84699 0.581928 5.13614 2.85904 2.85904C5.13614 0.581928 8.84699 0.581928 11.1241 2.85904C13.4012 5.13614 13.4012 8.84699 11.1241 11.1241Z" fill="#827D7D"/>
<path d="M6.99161 3.66861C6.67113 3.66861 6.41812 3.92162 6.41812 4.2421V6.43488H4.22535C3.90487 6.43488 3.65186 6.68789 3.65186 7.00837C3.65186 7.32885 3.90487 7.58186 4.22535 7.58186H6.41812V9.77463C6.41812 10.0951 6.67113 10.3481 6.99161 10.3481C7.14342 10.3481 7.29523 10.2807 7.39643 10.1795C7.49764 10.0782 7.56511 9.92644 7.56511 9.77463V7.58186H9.75788C9.90969 7.58186 10.0615 7.51439 10.1627 7.41319C10.2639 7.31198 10.3314 7.16018 10.3314 7.00837C10.3314 6.68789 10.0784 6.43488 9.75788 6.43488H7.56511V4.2421C7.56511 3.92162 7.3121 3.66861 6.99161 3.66861Z" fill="#827D7D"/>
</svg>
