<svg width="32" height="32" viewBox="0 0 32 32" fill="none" xmlns="http://www.w3.org/2000/svg">
<path d="M9.02084 16.5544C3.69037 19.1528 1.94538e-05 24.6099 8.13572e-06 30.9292C-0.00228023 31.5216 0.478469 32.0023 1.07084 32H30.9375C31.5268 31.9979 32.0023 31.5184 32 30.9292C32 24.6113 28.312 19.1535 22.9833 16.5544C21.1055 18.1926 18.6632 19.196 16 19.196C13.3368 19.196 10.8969 18.1926 9.02084 16.5544Z" fill="black"/>
<path d="M16.0005 0C11.3003 0 7.47291 3.82733 7.4729 8.52744C7.47291 13.2275 11.3003 17.0627 16.0005 17.0627C20.7006 17.0627 24.5359 13.2275 24.5359 8.52744C24.5359 3.82733 20.7006 0 16.0005 0Z" fill="black"/>
</svg>
