<svg width="14" height="14" viewBox="0 0 14 14" fill="none" xmlns="http://www.w3.org/2000/svg">
<path d="M2.09994 0C2.48646 0 2.80014 0.313679 2.80014 0.700201V5.60026C2.80014 5.98678 2.48646 6.29981 2.09994 6.29981C1.71341 6.29981 1.40039 5.98678 1.40039 5.60026V0.700201C1.40039 0.313679 1.71341 0 2.09994 0Z" fill="black"/>
<path d="M2.80013 9.09986H3.50033C3.88686 9.09986 4.19988 8.78618 4.19988 8.39966C4.19988 8.01314 3.88686 7.70011 3.50033 7.70011H0.700201C0.313679 7.70011 0 8.01314 0 8.39966C0 8.78618 0.313679 9.09986 0.700201 9.09986H1.4004V13.2997C1.4004 13.6862 1.71343 13.9999 2.09995 13.9999C2.48647 13.9999 2.80015 13.6862 2.80015 13.2997L2.80013 9.09986Z" fill="black"/>
<path d="M8.39984 6.29979H7.7003V13.2998C7.7003 13.6863 7.38662 14 7.0001 14C6.61357 14 6.29989 13.6863 6.29989 13.2998V6.29979H5.60035C5.21383 6.29979 4.90015 5.98676 4.90015 5.60024C4.90015 5.21372 5.21383 4.90004 5.60035 4.90004H8.39981C8.78633 4.90004 9.10001 5.21372 9.10001 5.60024C9.10001 5.98676 8.78636 6.29979 8.39984 6.29979Z" fill="black"/>
<path d="M7.00001 0C7.38653 0 7.70021 0.313679 7.70021 0.700201V2.80013C7.70021 3.18665 7.38653 3.50033 7.00001 3.50033C6.61348 3.50033 6.2998 3.18665 6.2998 2.80013V0.700201C6.2998 0.313679 6.61348 0 7.00001 0Z" fill="black"/>
<path d="M12.5997 0.700201C12.5997 0.313679 12.2867 0 11.9002 0C11.5136 0 11.2 0.313679 11.2 0.700201V8.39972C11.2 8.78625 11.5136 9.09993 11.9002 9.09993C12.2867 9.09993 12.5997 8.78625 12.5997 8.39972V0.700201Z" fill="black"/>
<path d="M12.5995 11.9H13.2997C13.6862 11.9 13.9999 11.5863 13.9999 11.1998C13.9999 10.8133 13.6862 10.4996 13.2997 10.4996H10.4996C10.1131 10.4996 9.80005 10.8133 9.80005 11.1998C9.80005 11.5863 10.1131 11.9 10.4996 11.9H11.1998V13.2998C11.1998 13.6863 11.5135 14 11.9 14C12.2865 14 12.5995 13.6863 12.5995 13.2998L12.5995 11.9Z" fill="black"/>
</svg>
