<svg width="252" height="54" viewBox="0 0 252 54" fill="none" xmlns="http://www.w3.org/2000/svg">
<g clip-path="url(#clip0_1382_415)">
<path d="M15.29 27.44V26.6H23.57C25.17 26.6 26.44 26.82 27.38 27.26C28.32 27.7 28.99 28.28 29.39 29C29.81 29.72 30.02 30.52 30.02 31.4V32.21C30.02 33.25 29.69 34.15 29.03 34.91C28.39 35.65 27.45 36.18 26.21 36.5C27.73 36.76 28.89 37.3 29.69 38.12C30.51 38.94 30.92 39.97 30.92 41.21V42.05C30.92 42.95 30.71 43.78 30.29 44.54C29.87 45.28 29.17 45.88 28.19 46.34C27.23 46.78 25.94 47 24.32 47H15.29V46.16L16.94 45.95C17.26 45.91 17.45 45.83 17.51 45.71C17.57 45.57 17.6 45.16 17.6 44.48V29.12C17.6 28.44 17.57 28.04 17.51 27.92C17.45 27.78 17.26 27.69 16.94 27.65L15.29 27.44ZM23.57 27.65H21.2V36.05H23.57C24.43 36.05 25.08 35.76 25.52 35.18C25.96 34.58 26.18 33.64 26.18 32.36V31.4C26.18 30.1 25.96 29.15 25.52 28.55C25.08 27.95 24.43 27.65 23.57 27.65ZM24.32 37.1H21.2V45.95H24.32C25.22 45.95 25.9 45.65 26.36 45.05C26.84 44.43 27.08 43.43 27.08 42.05V41.06C27.08 38.42 26.16 37.1 24.32 37.1ZM32.9663 25.64V24.8H38.7263V44.48C38.7263 45.16 38.7563 45.57 38.8163 45.71C38.8763 45.83 39.0663 45.91 39.3863 45.95L41.0363 46.16V47H32.9663V46.16L34.6163 45.95C34.9363 45.91 35.1263 45.83 35.1863 45.71C35.2463 45.57 35.2763 45.16 35.2763 44.48V27.32C35.2763 26.64 35.2463 26.24 35.1863 26.12C35.1263 25.98 34.9363 25.89 34.6163 25.85L32.9663 25.64ZM56.8098 39.08V39.68C56.8098 41.98 56.2098 43.83 55.0098 45.23C53.8298 46.61 52.1398 47.3 49.9398 47.3C47.7398 47.3 46.0398 46.61 44.8398 45.23C43.6598 43.83 43.0698 41.98 43.0698 39.68V39.08C43.0698 36.78 43.6598 34.94 44.8398 33.56C46.0398 32.18 47.7398 31.49 49.9398 31.49C52.1398 31.49 53.8298 32.18 55.0098 33.56C56.2098 34.94 56.8098 36.78 56.8098 39.08ZM53.1198 38.48C53.1198 36.34 52.8498 34.82 52.3098 33.92C51.7698 33 50.9798 32.54 49.9398 32.54C48.9198 32.54 48.1298 33 47.5698 33.92C47.0298 34.82 46.7598 36.34 46.7598 38.48V40.28C46.7598 42.4 47.0298 43.93 47.5698 44.87C48.1298 45.79 48.9198 46.25 49.9398 46.25C50.9798 46.25 51.7698 45.79 52.3098 44.87C52.8498 43.93 53.1198 42.4 53.1198 40.28V38.48ZM66.4855 32.54C65.5255 32.54 64.8055 33 64.3255 33.92C63.8655 34.82 63.6355 36.34 63.6355 38.48V40.28C63.6355 42.4 63.9055 43.93 64.4455 44.87C64.9855 45.79 65.8655 46.25 67.0855 46.25C67.9855 46.25 68.7155 46 69.2755 45.5C69.8555 44.98 70.1855 44.11 70.2655 42.89L72.1855 43.43C71.8255 44.83 71.1655 45.83 70.2055 46.43C69.2655 47.01 68.1555 47.3 66.8755 47.3C64.5755 47.3 62.8455 46.61 61.6855 45.23C60.5255 43.83 59.9455 41.98 59.9455 39.68V39.08C59.9455 36.78 60.5055 34.94 61.6255 33.56C62.7455 32.18 64.3655 31.49 66.4855 31.49C67.8855 31.49 69.0255 31.77 69.9055 32.33C70.8055 32.87 71.4355 33.59 71.7955 34.49C72.1755 35.37 72.2755 36.32 72.0955 37.34L68.7955 37.82C69.0155 36.14 68.9255 34.84 68.5255 33.92C68.1255 33 67.4455 32.54 66.4855 32.54ZM73.9234 25.64V24.8H79.6834V39.35L84.9634 34.31C85.6634 33.65 86.0334 33.25 86.0734 33.11C86.1334 32.97 85.9934 32.88 85.6534 32.84L84.0034 32.63V31.79H90.1534V32.63L88.5034 32.84C88.3234 32.86 88.1734 32.9 88.0534 32.96C87.9334 33.02 87.7634 33.15 87.5434 33.35C87.3234 33.53 86.9734 33.85 86.4934 34.31L83.6134 37.07L87.8734 44.48C88.1534 44.94 88.3634 45.27 88.5034 45.47C88.6434 45.65 88.7734 45.77 88.8934 45.83C89.0334 45.87 89.2034 45.91 89.4034 45.95L91.0534 46.16V47H85.3234L81.1534 39.41L79.6834 40.82V44.48C79.6834 45.16 79.7134 45.57 79.7734 45.71C79.8334 45.83 80.0234 45.91 80.3434 45.95L81.9934 46.16V47H73.9234V46.16L75.5734 45.95C75.8934 45.91 76.0834 45.83 76.1434 45.71C76.2034 45.57 76.2334 45.16 76.2334 44.48V27.32C76.2334 26.64 76.2034 26.24 76.1434 26.12C76.0834 25.98 75.8934 25.89 75.5734 25.85L73.9234 25.64ZM107.55 29.12L101.88 47H99.3001L93.6001 29.12C93.4601 28.66 93.3501 28.34 93.2701 28.16C93.1901 27.96 93.1001 27.83 93.0001 27.77C92.9001 27.71 92.7401 27.67 92.5201 27.65L90.8701 27.44V26.6H99.2101V27.44L97.5601 27.65C97.2401 27.69 97.0701 27.78 97.0501 27.92C97.0301 28.04 97.1201 28.44 97.3201 29.12L101.88 43.43L106.38 29.12C106.6 28.44 106.69 28.04 106.65 27.92C106.63 27.78 106.46 27.69 106.14 27.65L104.49 27.44V26.6H110.25V27.44L108.6 27.65C108.4 27.67 108.25 27.71 108.15 27.77C108.05 27.83 107.96 27.96 107.88 28.16C107.8 28.34 107.69 28.66 107.55 29.12ZM114.745 29.21C114.125 29.21 113.625 29.02 113.245 28.64C112.865 28.24 112.675 27.73 112.675 27.11C112.675 26.49 112.865 25.99 113.245 25.61C113.625 25.23 114.125 25.04 114.745 25.04C115.345 25.04 115.845 25.23 116.245 25.61C116.645 25.99 116.845 26.49 116.845 27.11C116.845 27.73 116.645 28.24 116.245 28.64C115.845 29.02 115.345 29.21 114.745 29.21ZM110.725 32.63V31.79H116.485V44.48C116.485 45.16 116.515 45.57 116.575 45.71C116.635 45.83 116.825 45.91 117.145 45.95L118.795 46.16V47H110.725V46.16L112.375 45.95C112.695 45.91 112.885 45.83 112.945 45.71C113.005 45.57 113.035 45.16 113.035 44.48V34.31C113.035 33.63 113.005 33.23 112.945 33.11C112.885 32.97 112.695 32.88 112.375 32.84L110.725 32.63ZM126.794 41.33L124.724 40.85C123.384 40.53 122.384 39.96 121.724 39.14C121.084 38.3 120.764 37.31 120.764 36.17C120.764 35.33 120.944 34.56 121.304 33.86C121.684 33.14 122.274 32.57 123.074 32.15C123.874 31.71 124.914 31.49 126.194 31.49C127.574 31.49 128.694 31.71 129.554 32.15C130.414 32.59 131.024 33.17 131.384 33.89C131.744 34.61 131.854 35.38 131.714 36.2L128.414 36.8C128.694 35.44 128.614 34.39 128.174 33.65C127.754 32.91 127.044 32.54 126.044 32.54C125.344 32.54 124.764 32.75 124.304 33.17C123.844 33.57 123.614 34.15 123.614 34.91C123.614 35.61 123.814 36.23 124.214 36.77C124.614 37.29 125.204 37.64 125.984 37.82L128.054 38.3C129.534 38.64 130.604 39.18 131.264 39.92C131.924 40.64 132.254 41.54 132.254 42.62C132.254 43.96 131.754 45.08 130.754 45.98C129.774 46.86 128.304 47.3 126.344 47.3C125.664 47.3 124.914 47.2 124.094 47C123.294 46.78 122.554 46.39 121.874 45.83C121.214 45.27 120.734 44.47 120.434 43.43L122.384 42.65C122.524 43.97 122.974 44.9 123.734 45.44C124.514 45.98 125.384 46.25 126.344 46.25C127.244 46.25 127.974 46.05 128.534 45.65C129.114 45.23 129.404 44.63 129.404 43.85C129.404 43.31 129.214 42.82 128.834 42.38C128.474 41.92 127.794 41.57 126.794 41.33ZM145.048 43.88C144.788 45.1 144.288 45.98 143.548 46.52C142.828 47.04 141.948 47.3 140.908 47.3C139.848 47.3 138.978 47.07 138.298 46.61C137.618 46.13 137.118 45.5 136.798 44.72C136.478 43.94 136.318 43.11 136.318 42.23V34.31C136.318 33.63 136.288 33.23 136.228 33.11C136.168 32.97 135.978 32.88 135.658 32.84L134.008 32.63V31.79H136.318V28.31L139.768 27.62V31.79H144.568V32.84H139.768V42.83C139.768 44.11 139.928 45 140.248 45.5C140.568 45.98 140.978 46.22 141.478 46.22C141.998 46.22 142.398 46.02 142.678 45.62C142.978 45.22 143.168 44.49 143.248 43.43L145.048 43.88ZM161.504 46.25C161.184 46.55 160.794 46.8 160.334 47C159.894 47.2 159.354 47.3 158.714 47.3C157.894 47.3 157.204 47.12 156.644 46.76C156.104 46.4 155.744 45.89 155.564 45.23C154.904 45.95 154.174 46.48 153.374 46.82C152.594 47.14 151.794 47.3 150.974 47.3C149.594 47.3 148.564 46.92 147.884 46.16C147.204 45.38 146.864 44.41 146.864 43.25C146.864 42.07 147.294 41.12 148.154 40.4C149.014 39.66 150.534 39.29 152.714 39.29H155.444V36.86C155.444 35.2 155.224 34.07 154.784 33.47C154.364 32.85 153.774 32.54 153.014 32.54C152.514 32.54 152.054 32.67 151.634 32.93C151.214 33.17 150.914 33.63 150.734 34.31C150.574 34.97 150.604 35.93 150.824 37.19L147.524 36.71C147.364 35.79 147.464 34.94 147.824 34.16C148.204 33.36 148.834 32.72 149.714 32.24C150.594 31.74 151.714 31.49 153.074 31.49C154.614 31.49 155.804 31.74 156.644 32.24C157.484 32.74 158.064 33.4 158.384 34.22C158.724 35.04 158.894 35.92 158.894 36.86V43.79C158.894 44.81 158.984 45.45 159.164 45.71C159.344 45.97 159.544 46.1 159.764 46.1C160.124 46.1 160.524 45.89 160.964 45.47L161.504 46.25ZM152.294 45.71C152.814 45.71 153.324 45.58 153.824 45.32C154.344 45.04 154.884 44.53 155.444 43.79V40.34H153.194C152.214 40.34 151.504 40.57 151.064 41.03C150.624 41.49 150.404 42.21 150.404 43.19C150.404 43.99 150.564 44.61 150.884 45.05C151.204 45.49 151.674 45.71 152.294 45.71ZM184.835 29.12L179.165 47H176.585L170.885 29.12C170.745 28.66 170.635 28.34 170.555 28.16C170.475 27.96 170.385 27.83 170.285 27.77C170.185 27.71 170.025 27.67 169.805 27.65L168.155 27.44V26.6H176.495V27.44L174.845 27.65C174.525 27.69 174.355 27.78 174.335 27.92C174.315 28.04 174.405 28.44 174.605 29.12L179.165 43.43L183.665 29.12C183.885 28.44 183.975 28.04 183.935 27.92C183.915 27.78 183.745 27.69 183.425 27.65L181.775 27.44V26.6H187.535V27.44L185.885 27.65C185.685 27.67 185.535 27.71 185.435 27.77C185.335 27.83 185.245 27.96 185.165 28.16C185.085 28.34 184.975 28.66 184.835 29.12ZM201.816 46.25C201.496 46.55 201.106 46.8 200.646 47C200.206 47.2 199.666 47.3 199.026 47.3C198.206 47.3 197.516 47.12 196.956 46.76C196.416 46.4 196.056 45.89 195.876 45.23C195.216 45.95 194.486 46.48 193.686 46.82C192.906 47.14 192.106 47.3 191.286 47.3C189.906 47.3 188.876 46.92 188.196 46.16C187.516 45.38 187.176 44.41 187.176 43.25C187.176 42.07 187.606 41.12 188.466 40.4C189.326 39.66 190.846 39.29 193.026 39.29H195.756V36.86C195.756 35.2 195.536 34.07 195.096 33.47C194.676 32.85 194.086 32.54 193.326 32.54C192.826 32.54 192.366 32.67 191.946 32.93C191.526 33.17 191.226 33.63 191.046 34.31C190.886 34.97 190.916 35.93 191.136 37.19L187.836 36.71C187.676 35.79 187.776 34.94 188.136 34.16C188.516 33.36 189.146 32.72 190.026 32.24C190.906 31.74 192.026 31.49 193.386 31.49C194.926 31.49 196.116 31.74 196.956 32.24C197.796 32.74 198.376 33.4 198.696 34.22C199.036 35.04 199.206 35.92 199.206 36.86V43.79C199.206 44.81 199.296 45.45 199.476 45.71C199.656 45.97 199.856 46.1 200.076 46.1C200.436 46.1 200.836 45.89 201.276 45.47L201.816 46.25ZM192.606 45.71C193.126 45.71 193.636 45.58 194.136 45.32C194.656 45.04 195.196 44.53 195.756 43.79V40.34H193.506C192.526 40.34 191.816 40.57 191.376 41.03C190.936 41.49 190.716 42.21 190.716 43.19C190.716 43.99 190.876 44.61 191.196 45.05C191.516 45.49 191.986 45.71 192.606 45.71ZM202.449 25.64V24.8H208.209V44.48C208.209 45.16 208.239 45.57 208.299 45.71C208.359 45.83 208.549 45.91 208.869 45.95L210.519 46.16V47H202.449V46.16L204.099 45.95C204.419 45.91 204.609 45.83 204.669 45.71C204.729 45.57 204.759 45.16 204.759 44.48V27.32C204.759 26.64 204.729 26.24 204.669 26.12C204.609 25.98 204.419 25.89 204.099 25.85L202.449 25.64ZM211.472 25.64V24.8H217.232V44.48C217.232 45.16 217.262 45.57 217.322 45.71C217.382 45.83 217.572 45.91 217.892 45.95L219.542 46.16V47H211.472V46.16L213.122 45.95C213.442 45.91 213.632 45.83 213.692 45.71C213.752 45.57 213.782 45.16 213.782 44.48V27.32C213.782 26.64 213.752 26.24 213.692 26.12C213.632 25.98 213.442 25.89 213.122 25.85L211.472 25.64ZM234.236 43.43C233.876 44.83 233.206 45.83 232.226 46.43C231.246 47.01 230.106 47.3 228.806 47.3C226.406 47.3 224.606 46.61 223.406 45.23C222.206 43.83 221.606 41.98 221.606 39.68V39.08C221.606 36.78 222.166 34.94 223.286 33.56C224.426 32.18 226.066 31.49 228.206 31.49C229.406 31.49 230.466 31.73 231.386 32.21C232.326 32.67 233.056 33.34 233.576 34.22C234.116 35.1 234.386 36.17 234.386 37.43C234.386 37.73 234.366 38.05 234.326 38.39C234.306 38.73 234.256 39.07 234.176 39.41H225.296V40.28C225.296 42.4 225.596 43.93 226.196 44.87C226.796 45.79 227.766 46.25 229.106 46.25C229.966 46.25 230.696 46 231.296 45.5C231.896 44.98 232.236 44.11 232.316 42.89L234.236 43.43ZM228.206 32.54C227.226 32.54 226.496 32.99 226.016 33.89C225.536 34.79 225.296 36.28 225.296 38.36H230.726C230.806 37.96 230.856 37.59 230.876 37.25C230.916 36.89 230.936 36.56 230.936 36.26C230.936 34.98 230.686 34.04 230.186 33.44C229.686 32.84 229.026 32.54 228.206 32.54ZM244.399 48.5C243.939 49.76 243.429 50.77 242.869 51.53C242.329 52.29 241.659 52.84 240.859 53.18C240.059 53.52 239.059 53.69 237.859 53.69V50.39C239.079 50.39 240.059 50.3 240.799 50.12C241.559 49.96 242.139 49.69 242.539 49.31C242.959 48.95 243.269 48.48 243.469 47.9L243.769 47H242.209L237.949 34.31C237.809 33.85 237.689 33.53 237.589 33.35C237.509 33.15 237.409 33.02 237.289 32.96C237.189 32.9 237.029 32.86 236.809 32.84L235.159 32.63V31.79H243.259V32.63L241.609 32.84C241.369 32.86 241.219 32.94 241.159 33.08C241.119 33.2 241.209 33.61 241.429 34.31L244.699 44.21L248.089 34.19C248.309 33.55 248.399 33.18 248.359 33.08C248.339 32.96 248.179 32.88 247.879 32.84L246.229 32.63V31.79H251.959V32.63L250.309 32.84C250.009 32.88 249.809 32.96 249.709 33.08C249.609 33.2 249.449 33.57 249.229 34.19L244.399 48.5Z" fill="white"/>
<path d="M32.4844 14V21.6094H24V14H32.4844Z" fill="#F9A602" stroke="black" stroke-width="2"/>
<path d="M28.7266 1H28.7295C29.4561 1.00614 30.1124 1.20355 30.6016 1.5166L30.8008 1.6582L39.8975 8.78125L45.0625 12.8271L45.0635 12.8281L45.752 13.3652L50.916 17.4072L54.3574 20.1025L54.3584 20.1035C54.8585 20.4942 55.0126 20.9205 54.999 21.2617C54.987 21.5641 54.8376 21.9345 54.4346 22.2773L54.2461 22.4219L54.2451 22.4229C53.6933 22.8085 52.9386 23.0164 52.1514 22.999C51.462 22.9838 50.8154 22.7975 50.3203 22.4824L50.1172 22.3398L29.2227 5.97949L28.623 5.51074L28.0117 5.96289L5.82812 22.3555C5.29424 22.7497 4.55033 22.9736 3.7627 22.9736C3.07323 22.9736 2.41715 22.8024 1.90625 22.4951L1.69727 22.3555C1.17403 21.9689 1.0001 21.5377 1 21.1943C1 20.8939 1.13275 20.5259 1.5166 20.1797L1.69727 20.0332L26.6182 1.62109L26.6201 1.61914C27.0752 1.28115 27.71 1.05407 28.4189 1.00879L28.7266 1Z" fill="#F9A602" stroke="black" stroke-width="2"/>
</g>
<defs>
<clipPath id="clip0_1382_415">
<rect width="252" height="54" fill="white"/>
</clipPath>
</defs>
</svg>
