<svg width="17" height="16" viewBox="0 0 17 16" fill="none" xmlns="http://www.w3.org/2000/svg">
<path d="M7.58726 5.20447V5.33495C6.81091 5.43265 6.2175 6.07327 6.18013 6.85487C6.25226 7.79186 7.06992 8.49281 8.00694 8.42133C8.49216 8.42133 8.99443 8.69411 8.99443 9.1485C8.99443 9.60355 8.48167 9.87567 8.00694 9.87567V9.87632C7.52631 9.91304 7.09617 9.57666 7.01684 9.10128C7.00701 8.9885 6.95193 8.88424 6.86472 8.81211C6.77686 8.74064 6.66408 8.7072 6.55129 8.71966C6.43851 8.73277 6.33623 8.79047 6.26672 8.87965C6.19722 8.96948 6.16705 9.08291 6.18279 9.19504C6.27721 9.94123 6.84701 10.5379 7.5873 10.6677V10.8002C7.5873 11.0317 7.77549 11.2198 8.00695 11.2198C8.23841 11.2198 8.4266 11.0317 8.4266 10.8002V10.6704C9.20295 10.5727 9.79637 9.93139 9.83373 9.15044C9.76161 8.21345 8.94394 7.51185 8.00692 7.58398C7.52105 7.58398 7.01944 7.31186 7.01944 6.85681C7.01944 6.40111 7.5322 6.12964 8.00692 6.12964V6.12899C8.48755 6.09227 8.91704 6.42865 8.99702 6.90403C9.00686 7.01681 9.06194 7.12107 9.14914 7.19255C9.23701 7.26467 9.34979 7.29811 9.46257 7.28566C9.5747 7.27254 9.67763 7.21484 9.74714 7.12567C9.81665 7.03583 9.84681 6.9224 9.83107 6.81027C9.73665 6.06409 9.16685 5.46674 8.42656 5.33758V5.20447C8.42656 4.97301 8.23837 4.78482 8.00691 4.78482C7.77545 4.78482 7.58726 4.97301 7.58726 5.20447Z" fill="black"/>
<path d="M3.24353 8.00234C3.24353 9.26587 3.74514 10.4776 4.63886 11.3713C5.53257 12.265 6.74432 12.7666 8.0078 12.7666C9.27127 12.7666 10.4831 12.2643 11.3767 11.3713C12.2705 10.4776 12.7721 9.26582 12.7721 8.00167C12.7721 6.73814 12.2698 5.52641 11.3761 4.6334C10.4824 3.73968 9.27062 3.23807 8.00714 3.23807C6.74427 3.23938 5.53323 3.74165 4.64005 4.63536C3.74699 5.52843 3.24484 6.73936 3.24353 8.00234ZM11.9323 8.00234C11.9323 9.04359 11.5185 10.0415 10.7828 10.7779C10.0465 11.5136 9.04849 11.9273 8.00726 11.9273C6.96601 11.9273 5.9681 11.5136 5.2317 10.7779C4.49601 10.0415 4.08225 9.04357 4.08225 8.00234C4.08225 6.96111 4.49599 5.96318 5.2317 5.22678C5.96805 4.49109 6.96603 4.07733 8.00726 4.07733C9.04785 4.07864 10.0459 4.4924 10.7815 5.22809C11.5172 5.96379 11.931 6.96178 11.9323 8.00234Z" fill="black"/>
<path d="M7.99923 16C9.56504 16 11.0974 15.5404 12.4042 14.6781C13.711 13.8152 14.7359 12.5871 15.351 11.1472L15.6952 12.0724V12.0717C15.7287 12.1825 15.8067 12.2743 15.9103 12.3255C16.0145 12.3766 16.1345 12.3825 16.2427 12.3425C16.3516 12.3019 16.4381 12.2186 16.4834 12.1117C16.528 12.0055 16.5266 11.8848 16.4801 11.7793L15.7529 9.8279C15.7378 9.74332 15.6978 9.66529 15.6369 9.60431L15.627 9.59382C15.5988 9.56628 15.566 9.54268 15.5313 9.52497C15.5129 9.51383 15.4946 9.50465 15.4749 9.49612C15.4638 9.49219 15.4552 9.48432 15.4434 9.48104C15.4316 9.47776 15.4179 9.48104 15.4047 9.48104H15.4054C15.368 9.47449 15.3306 9.47252 15.2933 9.4758L15.2585 9.4817V9.48104C15.2329 9.48301 15.2074 9.48694 15.1818 9.4935L13.1431 10.2521H13.1438C12.9346 10.3387 12.831 10.5747 12.9097 10.7872C12.9891 10.999 13.2212 11.1111 13.4362 11.0396L14.6736 10.5793C13.8533 12.6947 12.0776 14.2959 9.88822 14.8932C7.6995 15.4912 5.35669 15.0138 3.5752 13.608C1.79437 12.2022 0.785875 10.0344 0.858558 7.76631C0.931242 5.49819 2.07619 3.39928 3.94365 2.11029C5.81108 0.821177 8.17941 0.49464 10.3257 1.23099C12.4724 1.96734 14.1418 3.67871 14.8251 5.84259C14.8946 6.06356 15.1307 6.18618 15.3517 6.11667C15.5726 6.04651 15.6953 5.81112 15.6257 5.58949C15.0291 3.70107 13.7538 2.10121 12.0456 1.09925C10.3368 0.0973332 8.31798 -0.235096 6.37836 0.165534C4.43942 0.566819 2.71752 1.673 1.5472 3.27026C0.376114 4.8682 -0.160264 6.84248 0.0417041 8.81298C0.243001 10.7826 1.16885 12.6081 2.63832 13.9354C4.1084 15.2625 6.01851 15.9975 7.99874 15.9969L7.99923 16Z" fill="black"/>
</svg>
