<svg width="18" height="22" viewBox="0 0 18 22" fill="none" xmlns="http://www.w3.org/2000/svg">
<path d="M17 0H1C0.734784 0 0.48043 0.105357 0.292893 0.292893C0.105357 0.48043 0 0.734784 0 1V21C-4.21001e-07 21.1785 0.0477804 21.3538 0.138382 21.5076C0.228984 21.6614 0.359103 21.7881 0.515231 21.8746C0.671359 21.9612 0.847804 22.0043 1.02625 21.9997C1.20469 21.995 1.37863 21.9426 1.53 21.848L9 17.179L16.47 21.848C16.6214 21.9426 16.7953 21.995 16.9738 21.9997C17.1522 22.0043 17.3286 21.9612 17.4848 21.8746C17.6409 21.7881 17.771 21.6614 17.8616 21.5076C17.9522 21.3538 18 21.1785 18 21V1C18 0.734784 17.8946 0.48043 17.7071 0.292893C17.5196 0.105357 17.2652 0 17 0Z" fill="black"/>
</svg>
