<svg width="91" height="91" viewBox="0 0 91 91" fill="none" xmlns="http://www.w3.org/2000/svg">
<path d="M60.2887 51.7232C60.2988 51.7085 60.3098 51.6945 60.3198 51.6798C64.9637 44.8832 66.9034 36.5979 65.7589 28.4463C64.6144 20.2946 60.4683 12.8637 54.1323 7.60875C47.7964 2.35376 39.727 -0.346857 31.5043 0.0357337C23.2816 0.418325 15.4978 3.85656 9.67719 9.67719C3.85656 15.4978 0.418325 23.2816 0.0357337 31.5043C-0.346857 39.727 2.35376 47.7964 7.60875 54.1323C12.8637 60.4683 20.2946 64.6145 28.4463 65.7589C36.5979 66.9034 44.8832 64.9637 51.6798 60.3198C51.6944 60.3098 51.7083 60.2988 51.723 60.2888L79.7401 88.3059C80.876 89.4418 82.4166 90.0799 84.023 90.0799C85.6294 90.0799 87.1699 89.4418 88.3058 88.3059C89.4417 87.17 90.0798 85.6294 90.0798 84.023C90.0798 82.4167 89.4417 80.8761 88.3058 79.7402L60.2887 51.7232ZM33.0798 60.3398C26.5028 60.3446 20.1455 57.973 15.1786 53.6619C10.2116 49.3508 6.9693 43.3904 6.04876 36.8782C5.12823 30.3659 6.5914 23.7404 10.1689 18.2215C13.7463 12.7025 19.1972 8.66189 25.5178 6.84351C31.8385 5.02514 38.6032 5.55147 44.5665 8.32559C50.5298 11.0997 55.2901 15.9348 57.9709 21.9407C60.6517 27.9465 61.0725 34.7187 59.1557 41.0101C57.239 47.3016 53.1138 52.6888 47.5398 56.1798C43.2048 58.894 38.1944 60.3354 33.0798 60.3398Z" fill="black"/>
</svg>
