<svg width="16" height="16" viewBox="0 0 16 16" fill="none" xmlns="http://www.w3.org/2000/svg">
<path d="M8 0C3.6 0 0 3.6 0 8C0 12.4 3.6 16 8 16C12.4 16 16 12.4 16 8C16 3.6 12.4 0 8 0ZM8 14.4C4.48 14.4 1.6 11.52 1.6 8C1.6 4.48 4.48 1.6 8 1.6C11.52 1.6 14.4 4.48 14.4 8C14.4 11.52 11.52 14.4 8 14.4Z" fill="black" fill-opacity="0.8"/>
<path d="M8.08008 5.59995C8.96008 5.59995 9.84008 6.07995 10.2401 6.95995L11.6801 6.23995C11.1201 5.11995 10.0801 4.31995 8.88008 4.07995V3.19995H7.28008V4.07995C5.36008 4.47995 4.08008 6.07995 4.08008 7.99995C4.08008 9.91995 5.44008 11.52 7.20008 11.92V12.8H8.80008V11.92C10.0001 11.68 11.0401 10.88 11.6001 9.75995L10.1601 9.03995C9.76008 9.83995 8.96008 10.4 8.00008 10.4C6.64008 10.4 5.60008 9.35995 5.60008 7.99995C5.60008 6.63995 6.72008 5.59995 8.08008 5.59995Z" fill="black" fill-opacity="0.8"/>
</svg>
